<svg width="48" height="45" viewBox="0 0 48 45" fill="none" xmlns="http://www.w3.org/2000/svg">
<path d="M9.72323 28.431C10.22 22.882 12.8615 18.0364 16.7657 14.6159C13.9617 15.0756 11.5755 14.5286 10.3592 12.8781C8.23304 9.99093 10.4335 4.7729 15.2755 0.837536C7.06317 3.95916 0.925996 11.4897 0.0950166 20.7488C-0.884517 31.6492 5.80509 41.4738 15.7443 45C11.5337 40.7704 9.15222 34.8076 9.72323 28.431Z" fill="#134CB3"/>
<path d="M17.8566 10.2668C15.9904 11.7517 13.6321 11.9172 12.5876 10.6346C11.543 9.3519 12.2115 7.10377 14.0777 5.61882C15.944 4.13386 18.3023 3.96836 19.3468 5.25103C20.3867 6.5337 19.7228 8.78183 17.8566 10.2668Z" fill="#134CB3"/>
<path d="M38.2829 17.2042C37.7862 22.7533 35.1447 27.5989 31.2405 31.0194C34.0444 30.5596 36.4306 31.1067 37.6469 32.7572C39.7731 35.6443 37.5726 40.867 32.7307 44.7977C40.943 41.6761 47.0801 34.1502 47.9111 24.8865C48.8907 13.9861 42.201 4.16145 32.2618 0.635254C36.477 4.86485 38.8586 10.8277 38.2829 17.2042Z" fill="#134CB3"/>
<path d="M30.1542 35.3685C32.0204 33.8836 34.3787 33.718 35.4232 35.0007C36.4677 36.2834 35.7993 38.5315 33.933 40.0165C32.0668 41.5014 29.7085 41.6669 28.664 40.3843C27.6194 39.1016 28.2879 36.8535 30.1542 35.3685Z" fill="#134CB3"/>
<path d="M25.5405 0.809969C38.8718 12.3772 29.8532 22.551 24.7117 29.2394C18.9193 36.7753 24.7585 44.9449 24.7585 44.9449C23.7564 44.2463 11.2306 35.2139 23.3631 21.8333C32.85 11.3732 25.5405 0.809969 25.5405 0.809969Z" fill="#134CB3"/>
<path d="M16.1575 41.9566C15.93 41.9566 15.7443 41.7727 15.7443 41.5474C15.7443 41.3221 15.93 41.1382 16.1575 41.1382C16.385 41.1382 16.5707 41.3221 16.5707 41.5474C16.5707 41.7727 16.385 41.9566 16.1575 41.9566Z" fill="#134CB3"/>
<path d="M15.1408 38.7384C14.7509 38.7384 14.4352 38.4258 14.4352 38.0396C14.4352 37.6534 14.7509 37.3408 15.1408 37.3408C15.5308 37.3408 15.8465 37.6534 15.8465 38.0396C15.8465 38.4258 15.5308 38.7384 15.1408 38.7384Z" fill="#134CB3"/>
<path d="M14.8809 35.3271C14.3656 35.3271 13.9478 34.9134 13.9478 34.4031C13.9478 33.8928 14.3656 33.479 14.8809 33.479C15.3962 33.479 15.814 33.8928 15.814 34.4031C15.814 34.9134 15.3962 35.3271 14.8809 35.3271Z" fill="#134CB3"/>
<path d="M15.3683 31.8607C14.7695 31.8607 14.282 31.378 14.282 30.7849C14.282 30.1918 14.7695 29.7091 15.3683 29.7091C15.9672 29.7091 16.4546 30.1918 16.4546 30.7849C16.4546 31.378 15.9672 31.8607 15.3683 31.8607Z" fill="#134CB3"/>
<path d="M16.5103 28.4816C15.8558 28.4816 15.3265 27.9575 15.3265 27.3093C15.3265 26.6611 15.8558 26.137 16.5103 26.137C17.1649 26.137 17.6941 26.6611 17.6941 27.3093C17.6941 27.9575 17.1649 28.4816 16.5103 28.4816Z" fill="#134CB3"/>
<path d="M18.1723 25.2634C17.4945 25.2634 16.9467 24.7209 16.9467 24.0497C16.9467 23.3785 17.4945 22.836 18.1723 22.836C18.8501 22.836 19.3979 23.3785 19.3979 24.0497C19.3932 24.7209 18.8454 25.2634 18.1723 25.2634Z" fill="#134CB3"/>
<path d="M20.2196 22.2246C19.5464 22.2246 19.0033 21.6867 19.0033 21.0201C19.0033 20.3534 19.5464 19.8156 20.2196 19.8156C20.8927 19.8156 21.4359 20.3534 21.4359 21.0201C21.4405 21.6821 20.8927 22.2246 20.2196 22.2246Z" fill="#134CB3"/>
<path d="M22.1786 19.0662C22.8196 19.0662 23.3392 18.5516 23.3392 17.9168C23.3392 17.2821 22.8196 16.7675 22.1786 16.7675C21.5377 16.7675 21.018 17.2821 21.018 17.9168C21.018 18.5516 21.5377 19.0662 22.1786 19.0662Z" fill="#134CB3"/>
<path d="M23.6456 15.6043C24.2251 15.6043 24.6948 15.1392 24.6948 14.5653C24.6948 13.9915 24.2251 13.5263 23.6456 13.5263C23.0662 13.5263 22.5965 13.9915 22.5965 14.5653C22.5965 15.1392 23.0662 15.6043 23.6456 15.6043Z" fill="#134CB3"/>
<path d="M24.5602 11.8942C24.0773 11.8942 23.6874 11.5081 23.6874 11.0299C23.6874 10.5518 24.0773 10.1656 24.5602 10.1656C25.043 10.1656 25.4329 10.5518 25.4329 11.0299C25.4376 11.5081 25.043 11.8942 24.5602 11.8942Z" fill="#134CB3"/>
<path d="M24.899 8.01865C24.5509 8.01865 24.2677 7.73822 24.2677 7.39342C24.2677 7.04861 24.5509 6.76817 24.899 6.76817C25.2472 6.76817 25.5304 7.04861 25.5304 7.39342C25.5304 7.73822 25.2472 8.01865 24.899 8.01865Z" fill="#134CB3"/>
<path d="M24.6762 4.04192C24.5137 4.04192 24.3791 3.9086 24.3791 3.74769C24.3791 3.58678 24.5137 3.45345 24.6762 3.45345C24.8387 3.45345 24.9733 3.58678 24.9733 3.74769C24.9733 3.9132 24.8387 4.04192 24.6762 4.04192Z" fill="#134CB3"/>
</svg>
