<svg width="180" height="45" viewBox="0 0 180 45" fill="none" xmlns="http://www.w3.org/2000/svg">
<path d="M9.72323 28.431C10.22 22.882 12.8615 18.0364 16.7657 14.6159C13.9617 15.0756 11.5755 14.5286 10.3592 12.8781C8.23304 9.99093 10.4335 4.7729 15.2755 0.837536C7.06317 3.95916 0.925996 11.4897 0.0950166 20.7488C-0.884517 31.6492 5.80509 41.4738 15.7443 45C11.5337 40.7704 9.15222 34.8076 9.72323 28.431Z" fill="#134CB3"/>
<path d="M17.8566 10.2668C15.9904 11.7517 13.6321 11.9172 12.5876 10.6346C11.543 9.3519 12.2115 7.10377 14.0777 5.61882C15.944 4.13386 18.3023 3.96836 19.3468 5.25103C20.3867 6.5337 19.7228 8.78183 17.8566 10.2668Z" fill="#134CB3"/>
<path d="M38.2829 17.2042C37.7862 22.7533 35.1447 27.5989 31.2405 31.0194C34.0444 30.5596 36.4306 31.1067 37.6469 32.7572C39.7731 35.6443 37.5726 40.867 32.7307 44.7977C40.943 41.6761 47.0801 34.1502 47.9111 24.8865C48.8907 13.9861 42.201 4.16145 32.2618 0.635254C36.477 4.86485 38.8586 10.8277 38.2829 17.2042Z" fill="#134CB3"/>
<path d="M30.1542 35.3685C32.0204 33.8836 34.3787 33.718 35.4232 35.0007C36.4677 36.2834 35.7993 38.5315 33.933 40.0165C32.0668 41.5014 29.7085 41.6669 28.664 40.3843C27.6194 39.1016 28.2879 36.8535 30.1542 35.3685Z" fill="#134CB3"/>
<path d="M25.5405 0.809969C38.8718 12.3772 29.8532 22.551 24.7117 29.2394C18.9193 36.7753 24.7585 44.9449 24.7585 44.9449C23.7564 44.2463 11.2306 35.2139 23.3631 21.8333C32.85 11.3732 25.5405 0.809969 25.5405 0.809969Z" fill="#134CB3"/>
<path d="M16.1575 41.9566C15.93 41.9566 15.7443 41.7727 15.7443 41.5474C15.7443 41.3221 15.93 41.1382 16.1575 41.1382C16.385 41.1382 16.5707 41.3221 16.5707 41.5474C16.5707 41.7727 16.385 41.9566 16.1575 41.9566Z" fill="#134CB3"/>
<path d="M15.1408 38.7384C14.7509 38.7384 14.4352 38.4258 14.4352 38.0396C14.4352 37.6534 14.7509 37.3408 15.1408 37.3408C15.5308 37.3408 15.8465 37.6534 15.8465 38.0396C15.8465 38.4258 15.5308 38.7384 15.1408 38.7384Z" fill="#134CB3"/>
<path d="M14.8809 35.3271C14.3656 35.3271 13.9478 34.9134 13.9478 34.4031C13.9478 33.8928 14.3656 33.479 14.8809 33.479C15.3962 33.479 15.814 33.8928 15.814 34.4031C15.814 34.9134 15.3962 35.3271 14.8809 35.3271Z" fill="#134CB3"/>
<path d="M15.3683 31.8607C14.7695 31.8607 14.282 31.378 14.282 30.7849C14.282 30.1918 14.7695 29.7091 15.3683 29.7091C15.9672 29.7091 16.4546 30.1918 16.4546 30.7849C16.4546 31.378 15.9672 31.8607 15.3683 31.8607Z" fill="#134CB3"/>
<path d="M16.5103 28.4816C15.8558 28.4816 15.3265 27.9575 15.3265 27.3093C15.3265 26.6611 15.8558 26.137 16.5103 26.137C17.1649 26.137 17.6941 26.6611 17.6941 27.3093C17.6941 27.9575 17.1649 28.4816 16.5103 28.4816Z" fill="#134CB3"/>
<path d="M18.1723 25.2634C17.4945 25.2634 16.9467 24.7209 16.9467 24.0497C16.9467 23.3785 17.4945 22.836 18.1723 22.836C18.8501 22.836 19.3979 23.3785 19.3979 24.0497C19.3932 24.7209 18.8454 25.2634 18.1723 25.2634Z" fill="#134CB3"/>
<path d="M20.2196 22.2246C19.5464 22.2246 19.0033 21.6867 19.0033 21.0201C19.0033 20.3534 19.5464 19.8156 20.2196 19.8156C20.8927 19.8156 21.4359 20.3534 21.4359 21.0201C21.4405 21.6821 20.8927 22.2246 20.2196 22.2246Z" fill="#134CB3"/>
<path d="M22.1786 19.0662C22.8196 19.0662 23.3392 18.5516 23.3392 17.9168C23.3392 17.2821 22.8196 16.7675 22.1786 16.7675C21.5377 16.7675 21.018 17.2821 21.018 17.9168C21.018 18.5516 21.5377 19.0662 22.1786 19.0662Z" fill="#134CB3"/>
<path d="M23.6456 15.6043C24.2251 15.6043 24.6948 15.1392 24.6948 14.5653C24.6948 13.9915 24.2251 13.5263 23.6456 13.5263C23.0662 13.5263 22.5965 13.9915 22.5965 14.5653C22.5965 15.1392 23.0662 15.6043 23.6456 15.6043Z" fill="#134CB3"/>
<path d="M24.5602 11.8942C24.0773 11.8942 23.6874 11.5081 23.6874 11.0299C23.6874 10.5518 24.0773 10.1656 24.5602 10.1656C25.043 10.1656 25.4329 10.5518 25.4329 11.0299C25.4376 11.5081 25.043 11.8942 24.5602 11.8942Z" fill="#134CB3"/>
<path d="M24.899 8.01865C24.5509 8.01865 24.2677 7.73822 24.2677 7.39342C24.2677 7.04861 24.5509 6.76817 24.899 6.76817C25.2472 6.76817 25.5304 7.04861 25.5304 7.39342C25.5304 7.73822 25.2472 8.01865 24.899 8.01865Z" fill="#134CB3"/>
<path d="M24.6762 4.04192C24.5137 4.04192 24.3791 3.9086 24.3791 3.74769C24.3791 3.58678 24.5137 3.45345 24.6762 3.45345C24.8387 3.45345 24.9733 3.58678 24.9733 3.74769C24.9733 3.9132 24.8387 4.04192 24.6762 4.04192Z" fill="#134CB3"/>
<path d="M70.159 22.1118C67.9588 22.1118 66.0685 21.6682 64.4883 20.7809C62.9281 19.8734 61.728 18.603 60.8878 16.9695C60.0477 15.3159 59.6277 13.3699 59.6277 11.1315C59.6277 9.45776 59.8677 7.95541 60.3478 6.62447C60.8278 5.27336 61.5179 4.12391 62.418 3.17611C63.3182 2.20816 64.4183 1.4721 65.7185 0.967959C67.0386 0.443647 68.5188 0.181492 70.159 0.181492C71.2592 0.181492 72.3393 0.322652 73.3995 0.604974C74.4596 0.887295 75.3897 1.29061 76.1898 1.81492C76.6099 2.07708 76.8899 2.39973 77.0299 2.78288C77.1699 3.14587 77.1999 3.50885 77.1199 3.87183C77.0399 4.21465 76.8699 4.50706 76.6099 4.74905C76.3698 4.99104 76.0598 5.1322 75.6797 5.17253C75.3197 5.1927 74.9196 5.06162 74.4796 4.7793C73.8595 4.37598 73.1894 4.08358 72.4693 3.90208C71.7492 3.72059 71.0191 3.62985 70.2791 3.62985C68.8589 3.62985 67.6587 3.92225 66.6786 4.50706C65.6985 5.09187 64.9584 5.93883 64.4583 7.04795C63.9582 8.15707 63.7082 9.51826 63.7082 11.1315C63.7082 12.7246 63.9582 14.0858 64.4583 15.2151C64.9584 16.3444 65.6985 17.2014 66.6786 17.7862C67.6587 18.3711 68.8589 18.6635 70.2791 18.6635C71.0391 18.6635 71.7892 18.5727 72.5293 18.3912C73.2694 18.1896 73.9695 17.8871 74.6296 17.4838C75.0697 17.2216 75.4597 17.1107 75.7998 17.151C76.1598 17.1712 76.4598 17.2922 76.6999 17.514C76.9399 17.7358 77.0999 18.0182 77.1799 18.361C77.2599 18.6836 77.2399 19.0264 77.1199 19.3894C76.9999 19.7322 76.7599 20.0347 76.3998 20.2969C75.5997 20.8817 74.6396 21.3354 73.5195 21.6581C72.4193 21.9606 71.2992 22.1118 70.159 22.1118Z" fill="#101A29"/>
<path d="M81.6111 22.0513C81.0111 22.0513 80.551 21.89 80.2309 21.5673C79.9109 21.2245 79.7509 20.7405 79.7509 20.1154V2.14766C79.7509 1.52252 79.9109 1.04862 80.2309 0.725969C80.551 0.403315 81.0111 0.241988 81.6111 0.241988C82.2112 0.241988 82.6713 0.403315 82.9913 0.725969C83.3313 1.04862 83.5014 1.52252 83.5014 2.14766V9.98207H83.0813C83.5214 8.91329 84.2015 8.10665 85.1216 7.56218C86.0617 6.99754 87.1218 6.71521 88.302 6.71521C89.4821 6.71521 90.4523 6.93704 91.2124 7.38069C91.9725 7.82433 92.5425 8.49989 92.9226 9.40735C93.3026 10.2946 93.4927 11.4239 93.4927 12.7952V20.1154C93.4927 20.7405 93.3326 21.2245 93.0126 21.5673C92.6926 21.89 92.2325 22.0513 91.6324 22.0513C91.0323 22.0513 90.5623 21.89 90.2222 21.5673C89.9022 21.2245 89.7422 20.7405 89.7422 20.1154V12.9767C89.7422 11.8272 89.5221 10.9904 89.0821 10.4661C88.662 9.94174 88.0019 9.67959 87.1018 9.67959C86.0017 9.67959 85.1216 10.0325 84.4615 10.7383C83.8214 11.4239 83.5014 12.3415 83.5014 13.4909V20.1154C83.5014 21.406 82.8713 22.0513 81.6111 22.0513Z" fill="#101A29"/>
<path d="M98.5621 22.0211C97.962 22.0211 97.502 21.8396 97.1819 21.4766C96.8619 21.1136 96.7019 20.6095 96.7019 19.9642V8.86287C96.7019 8.1974 96.8619 7.69326 97.1819 7.35044C97.502 6.98745 97.962 6.80596 98.5621 6.80596C99.1622 6.80596 99.6223 6.98745 99.9423 7.35044C100.282 7.69326 100.452 8.1974 100.452 8.86287V19.9642C100.452 20.6095 100.292 21.1136 99.9723 21.4766C99.6523 21.8396 99.1822 22.0211 98.5621 22.0211ZM98.5621 3.99283C97.862 3.99283 97.312 3.82142 96.9119 3.4786C96.5319 3.11562 96.3418 2.62155 96.3418 1.99641C96.3418 1.35111 96.5319 0.857046 96.9119 0.514227C97.312 0.171409 97.862 0 98.5621 0C99.2822 0 99.8323 0.171409 100.212 0.514227C100.592 0.857046 100.782 1.35111 100.782 1.99641C100.782 2.62155 100.592 3.11562 100.212 3.4786C99.8323 3.82142 99.2822 3.99283 98.5621 3.99283Z" fill="#101A29"/>
<path d="M105.67 22.0513C105.049 22.0513 104.569 21.89 104.229 21.5673C103.909 21.2245 103.749 20.7405 103.749 20.1154V8.68138C103.749 8.05624 103.909 7.58234 104.229 7.25969C104.549 6.93704 104.999 6.77571 105.58 6.77571C106.16 6.77571 106.61 6.93704 106.93 7.25969C107.25 7.58234 107.41 8.05624 107.41 8.68138V10.587H107.11C107.39 9.3771 107.94 8.45956 108.76 7.83442C109.58 7.20928 110.67 6.83621 112.03 6.71521C112.45 6.67488 112.78 6.78579 113.02 7.04795C113.28 7.28994 113.431 7.67309 113.471 8.1974C113.511 8.70155 113.391 9.11495 113.11 9.4376C112.85 9.74009 112.45 9.92158 111.91 9.98207L111.25 10.0426C110.03 10.1636 109.11 10.5467 108.49 11.192C107.87 11.8172 107.56 12.7045 107.56 13.8539V20.1154C107.56 20.7405 107.4 21.2245 107.08 21.5673C106.76 21.89 106.29 22.0513 105.67 22.0513Z" fill="#101A29"/>
<path d="M121.355 22.1118C119.835 22.1118 118.515 21.7992 117.395 21.1741C116.275 20.549 115.404 19.6617 114.784 18.5122C114.164 17.3426 113.854 15.9713 113.854 14.3984C113.854 13.2086 114.024 12.1499 114.364 11.2223C114.724 10.2745 115.234 9.46785 115.895 8.80238C116.555 8.11674 117.345 7.60251 118.265 7.25969C119.185 6.89671 120.215 6.71521 121.355 6.71521C122.875 6.71521 124.196 7.02778 125.316 7.65292C126.436 8.27806 127.306 9.16536 127.926 10.3148C128.546 11.4643 128.856 12.8255 128.856 14.3984C128.856 15.5882 128.676 16.657 128.316 17.6048C127.976 18.5525 127.476 19.3693 126.816 20.0549C126.156 20.7204 125.366 21.2346 124.446 21.5976C123.525 21.9404 122.495 22.1118 121.355 22.1118ZM121.355 19.2382C122.095 19.2382 122.745 19.0567 123.305 18.6937C123.866 18.3307 124.296 17.7963 124.596 17.0905C124.916 16.3646 125.076 15.4672 125.076 14.3984C125.076 12.7851 124.736 11.5853 124.056 10.7988C123.375 9.99216 122.475 9.58884 121.355 9.58884C120.615 9.58884 119.965 9.77033 119.405 10.1333C118.845 10.4761 118.405 11.0105 118.085 11.7365C117.785 12.4423 117.635 13.3296 117.635 14.3984C117.635 15.9915 117.975 17.2014 118.655 18.0282C119.335 18.8349 120.235 19.2382 121.355 19.2382Z" fill="#101A29"/>
<path d="M134.086 22.0513C133.485 22.0513 133.015 21.89 132.675 21.5673C132.355 21.2245 132.195 20.7405 132.195 20.1154V9.86108H130.815C130.335 9.86108 129.965 9.74009 129.705 9.4981C129.445 9.23594 129.315 8.88304 129.315 8.43939C129.315 7.97558 129.445 7.62267 129.705 7.38069C129.965 7.1387 130.335 7.0177 130.815 7.0177H133.275L132.195 8.01591V6.98745C132.195 4.95071 132.705 3.40802 133.725 2.3594C134.746 1.31078 136.226 0.685636 138.166 0.483979L139.066 0.393234C139.526 0.352901 139.886 0.413399 140.146 0.574725C140.426 0.736052 140.606 0.957876 140.686 1.2402C140.786 1.50235 140.806 1.78467 140.746 2.08716C140.686 2.36948 140.566 2.62155 140.386 2.84338C140.206 3.04504 139.976 3.15595 139.696 3.17611L138.976 3.23661C137.916 3.31728 137.146 3.60968 136.666 4.11382C136.186 4.61797 135.946 5.37419 135.946 6.38248V7.50168L135.466 7.0177H143.777C144.377 7.0177 144.837 7.19919 145.157 7.56218C145.477 7.905 145.637 8.39906 145.637 9.04436V19.9642C145.637 20.6095 145.477 21.1136 145.157 21.4766C144.857 21.8396 144.397 22.0211 143.777 22.0211C143.177 22.0211 142.707 21.8396 142.367 21.4766C142.047 21.1136 141.887 20.6095 141.887 19.9642V9.86108H135.946V20.1154C135.946 21.406 135.326 22.0513 134.086 22.0513ZM143.837 3.99283C143.157 3.99283 142.627 3.82142 142.247 3.4786C141.887 3.11562 141.706 2.62155 141.706 1.99641C141.706 1.35111 141.887 0.857046 142.247 0.514227C142.627 0.171409 143.157 0 143.837 0C144.537 0 145.067 0.171409 145.427 0.514227C145.807 0.857046 145.997 1.35111 145.997 1.99641C145.997 2.62155 145.807 3.11562 145.427 3.4786C145.067 3.82142 144.537 3.99283 143.837 3.99283Z" fill="#101A29"/>
<path d="M150.807 22.0513C150.207 22.0513 149.747 21.89 149.427 21.5673C149.107 21.2245 148.947 20.7405 148.947 20.1154V8.68138C148.947 8.05624 149.107 7.58234 149.427 7.25969C149.747 6.93704 150.197 6.77571 150.777 6.77571C151.358 6.77571 151.808 6.93704 152.128 7.25969C152.448 7.58234 152.608 8.05624 152.608 8.68138V10.7383L152.278 9.98207C152.718 8.91329 153.398 8.10665 154.318 7.56218C155.258 6.99754 156.318 6.71521 157.498 6.71521C158.678 6.71521 159.649 6.93704 160.409 7.38069C161.169 7.82433 161.739 8.49989 162.119 9.40735C162.499 10.2946 162.689 11.4239 162.689 12.7952V20.1154C162.689 20.7405 162.529 21.2245 162.209 21.5673C161.889 21.89 161.429 22.0513 160.829 22.0513C160.229 22.0513 159.759 21.89 159.419 21.5673C159.099 21.2245 158.939 20.7405 158.939 20.1154V12.9767C158.939 11.8272 158.719 10.9904 158.278 10.4661C157.858 9.94174 157.198 9.67959 156.298 9.67959C155.198 9.67959 154.318 10.0325 153.658 10.7383C153.018 11.4239 152.698 12.3415 152.698 13.4909V20.1154C152.698 21.406 152.068 22.0513 150.807 22.0513Z" fill="#101A29"/>
<path d="M171.539 22.1118C170.259 22.1118 169.129 21.7992 168.149 21.1741C167.188 20.549 166.438 19.6617 165.898 18.5122C165.358 17.3426 165.088 15.9713 165.088 14.3984C165.088 12.8053 165.358 11.4441 165.898 10.3148C166.438 9.16536 167.188 8.27806 168.149 7.65292C169.129 7.02778 170.259 6.71521 171.539 6.71521C172.759 6.71521 173.819 7.0177 174.719 7.62268C175.64 8.22765 176.26 9.0242 176.58 10.0123H176.25V2.14766C176.25 1.52252 176.41 1.04862 176.73 0.725969C177.05 0.403315 177.51 0.241988 178.11 0.241988C178.71 0.241988 179.17 0.403315 179.49 0.725969C179.83 1.04862 180 1.52252 180 2.14766V20.1154C180 20.7405 179.84 21.2245 179.52 21.5673C179.2 21.89 178.74 22.0513 178.14 22.0513C177.54 22.0513 177.08 21.89 176.76 21.5673C176.44 21.2245 176.28 20.7405 176.28 20.1154V17.756L176.61 18.6635C176.31 19.7121 175.7 20.549 174.779 21.1741C173.859 21.7992 172.779 22.1118 171.539 22.1118ZM172.589 19.2382C173.329 19.2382 173.979 19.0567 174.539 18.6937C175.099 18.3307 175.529 17.7963 175.83 17.0905C176.15 16.3646 176.31 15.4672 176.31 14.3984C176.31 12.7851 175.97 11.5853 175.289 10.7988C174.609 9.99216 173.709 9.58884 172.589 9.58884C171.849 9.58884 171.199 9.77033 170.639 10.1333C170.079 10.4761 169.639 11.0105 169.319 11.7365C169.019 12.4423 168.869 13.3296 168.869 14.3984C168.869 15.9915 169.209 17.2014 169.889 18.0282C170.569 18.8349 171.469 19.2382 172.589 19.2382Z" fill="#101A29"/>
<path d="M60.8403 39.9586V31.8351H63.3221C63.981 31.8351 64.5451 31.938 65.0142 32.1438C65.4869 32.3496 65.8486 32.6439 66.0993 33.0266C66.35 33.4093 66.4753 33.8678 66.4753 34.4021C66.4753 34.9329 66.35 35.3914 66.0993 35.7777C65.8486 36.164 65.4869 36.4619 65.0142 36.6713C64.5451 36.8771 63.981 36.98 63.3221 36.98H61.7858V39.9586H60.8403ZM61.7858 36.1351H63.2415C63.9649 36.1351 64.5236 35.9817 64.9175 35.6748C65.3114 35.3679 65.5084 34.9437 65.5084 34.4021C65.5084 33.8606 65.3114 33.4382 64.9175 33.1349C64.5236 32.8316 63.9649 32.68 63.2415 32.68H61.7858V36.1351Z" fill="#67687A"/>
<path d="M68.7154 39.9586H67.7699V31.8351H68.7154V35.5286H73.2115V31.8351H74.157V39.9586H73.2115V36.3734H68.7154V39.9586Z" fill="#67687A"/>
<path d="M79.2011 39.9586H78.2556V36.4872L75.1293 31.8351H76.2788L78.7284 35.6911L81.1886 31.8351H82.3328L79.2011 36.498V39.9586Z" fill="#67687A"/>
<path d="M82.9291 39.1679L83.3857 38.4368C83.6185 38.6281 83.8513 38.787 84.084 38.9134C84.3168 39.0397 84.5532 39.1336 84.7931 39.195C85.0366 39.2563 85.2837 39.287 85.5344 39.287C85.8997 39.287 86.2184 39.2257 86.4906 39.1029C86.7663 38.9801 86.9812 38.8105 87.1352 38.5938C87.2892 38.3736 87.3662 38.1209 87.3662 37.8356C87.3662 37.5252 87.2785 37.2688 87.103 37.0666C86.9311 36.8608 86.7073 36.6857 86.4315 36.5413C86.1558 36.3969 85.8621 36.2597 85.5505 36.1297C85.2891 36.0178 85.0295 35.8987 84.7716 35.7723C84.5138 35.6459 84.2792 35.4997 84.0679 35.3336C83.8602 35.1639 83.6937 34.96 83.5683 34.7217C83.443 34.4834 83.3803 34.1963 83.3803 33.8606C83.3803 33.4309 83.4878 33.0518 83.7026 32.7233C83.9175 32.3948 84.2147 32.1384 84.5944 31.9543C84.9775 31.7701 85.418 31.6781 85.9158 31.6781C86.2524 31.6781 86.5909 31.7232 86.9311 31.8135C87.2713 31.9001 87.6008 32.0283 87.9195 32.198L87.5327 32.9778C87.282 32.8298 87.0188 32.7161 86.7431 32.6366C86.4709 32.5572 86.2023 32.5175 85.9373 32.5175C85.6222 32.5175 85.3446 32.5717 85.1047 32.68C84.8683 32.7847 84.6821 32.9327 84.546 33.1241C84.4135 33.3118 84.3472 33.532 84.3472 33.7848C84.3472 34.0664 84.4278 34.3029 84.589 34.4942C84.7537 34.6856 84.965 34.8516 85.2229 34.9924C85.4843 35.1296 85.76 35.2632 86.0501 35.3932C86.3259 35.516 86.598 35.6459 86.8666 35.7831C87.1388 35.9167 87.3841 36.0756 87.6026 36.2597C87.8246 36.4402 88.0019 36.6568 88.1344 36.9096C88.2669 37.1623 88.3331 37.4674 88.3331 37.8248C88.3331 38.2833 88.2185 38.6859 87.9893 39.0325C87.7601 39.3755 87.4378 39.6427 87.0224 39.834C86.6106 40.0254 86.1271 40.121 85.572 40.121C85.085 40.121 84.6212 40.0416 84.1807 39.8828C83.7402 39.7239 83.323 39.4856 82.9291 39.1679Z" fill="#67687A"/>
<path d="M90.6752 31.8351V39.9586H89.7298V31.8351H90.6752Z" fill="#67687A"/>
<path d="M96.1544 40.121C95.5492 40.121 94.9905 40.0163 94.4784 39.8069C93.9699 39.5975 93.5276 39.3033 93.1516 38.9242C92.7756 38.5415 92.4837 38.0938 92.276 37.5811C92.0683 37.0648 91.9644 36.5034 91.9644 35.8969C91.9644 35.2867 92.0683 34.7253 92.276 34.2126C92.4837 33.6963 92.7756 33.2486 93.1516 32.8695C93.5276 32.4904 93.9699 32.1962 94.4784 31.9868C94.9905 31.7774 95.5492 31.6727 96.1544 31.6727C96.7596 31.6727 97.3165 31.7774 97.8251 31.9868C98.3336 32.1962 98.7759 32.4904 99.1519 32.8695C99.5279 33.2486 99.8198 33.6963 100.027 34.2126C100.235 34.7253 100.339 35.2867 100.339 35.8969C100.339 36.5034 100.235 37.0648 100.027 37.5811C99.8198 38.0938 99.5279 38.5415 99.1519 38.9242C98.7759 39.3033 98.3336 39.5975 97.8251 39.8069C97.3165 40.0163 96.7596 40.121 96.1544 40.121ZM96.1544 39.2762C96.6164 39.2762 97.0426 39.1914 97.4329 39.0217C97.8268 38.852 98.1688 38.6155 98.4589 38.3122C98.749 38.0053 98.9728 37.6479 99.1304 37.2399C99.2915 36.8283 99.3721 36.3806 99.3721 35.8969C99.3721 35.4131 99.2915 34.9654 99.1304 34.5538C98.9728 34.1422 98.749 33.7848 98.4589 33.4815C98.1688 33.1746 97.8268 32.9381 97.4329 32.772C97.0426 32.6024 96.6164 32.5175 96.1544 32.5175C95.6925 32.5175 95.2645 32.6024 94.8706 32.772C94.4802 32.9381 94.14 33.1746 93.8499 33.4815C93.5599 33.7848 93.3342 34.1422 93.1731 34.5538C93.0119 34.9654 92.9314 35.4131 92.9314 35.8969C92.9314 36.3806 93.0119 36.8283 93.1731 37.2399C93.3342 37.6515 93.5599 38.0108 93.8499 38.3176C94.14 38.6209 94.4802 38.8574 94.8706 39.0271C95.2645 39.1932 95.6925 39.2762 96.1544 39.2762Z" fill="#67687A"/>
<path d="M107.21 39.9586H106.264V32.68H103.675V31.8351H109.799V32.68H107.21V39.9586Z" fill="#67687A"/>
<path d="M111.765 39.9586H110.819V31.8351H111.765V35.5286H116.261V31.8351H117.206V39.9586H116.261V36.3734H111.765V39.9586Z" fill="#67687A"/>
<path d="M118.877 39.9586V31.8351H123.814V32.68H119.822V35.4094H123.593V36.2543H119.822V39.1137H123.867V39.9586H118.877Z" fill="#67687A"/>
<path d="M131.307 39.9586H130.255L128.331 36.655H126.43V39.9586H125.484V31.8351H128.272C128.849 31.8351 129.345 31.9326 129.76 32.1276C130.176 32.3225 130.496 32.6005 130.722 32.9616C130.947 33.319 131.06 33.7469 131.06 34.2451C131.06 34.8264 130.906 35.3138 130.598 35.7073C130.294 36.1008 129.866 36.3734 129.314 36.5251L131.307 39.9586ZM126.43 35.8102H128.213C128.797 35.8102 129.255 35.6712 129.588 35.3932C129.925 35.1152 130.093 34.7325 130.093 34.2451C130.093 33.7577 129.927 33.375 129.594 33.097C129.261 32.819 128.801 32.68 128.213 32.68H126.43V35.8102Z" fill="#67687A"/>
<path d="M132.946 39.9586H131.952L135.261 31.8351H136.287L139.591 39.9586H138.597L137.721 37.7652H133.821L132.946 39.9586ZM134.154 36.9204H137.388L135.771 32.8641L134.154 36.9204Z" fill="#67687A"/>
<path d="M140.665 39.9586V31.8351H143.147C143.806 31.8351 144.37 31.938 144.839 32.1438C145.312 32.3496 145.673 32.6439 145.924 33.0266C146.175 33.4093 146.3 33.8678 146.3 34.4021C146.3 34.9329 146.175 35.3914 145.924 35.7777C145.673 36.164 145.312 36.4619 144.839 36.6713C144.37 36.8771 143.806 36.98 143.147 36.98H141.61V39.9586H140.665ZM141.61 36.1351H143.066C143.79 36.1351 144.348 35.9817 144.742 35.6748C145.136 35.3679 145.333 34.9437 145.333 34.4021C145.333 33.8606 145.136 33.4382 144.742 33.1349C144.348 32.8316 143.79 32.68 143.066 32.68H141.61V36.1351Z" fill="#67687A"/>
<path d="M150.861 39.9586H149.915V36.4872L146.789 31.8351H147.938L150.388 35.6911L152.848 31.8351H153.992L150.861 36.498V39.9586Z" fill="#67687A"/>
</svg>
